<svg xmlns="http://www.w3.org/2000/svg" width="310" height="110" viewBox="0 0 310 110">
  <rect fill="#ddd" height="19" width="19" x="5.5" y="5.5" />
  <rect fill="#ddd" height="19" width="19" x="25.5" y="5.5" />
  <rect fill="#ddd" height="19" width="19" x="45.5" y="5.5" />
  <rect fill="#ddd" height="19" width="19" x="65.5" y="5.5" />
  <rect fill="#ddd" height="19" width="19" x="105.5" y="5.5" />
  <rect fill="#ddd" height="19" width="19" x="185.5" y="5.5" />
  <rect fill="#ddd" height="19" width="19" x="225.5" y="5.5" />
  <rect fill="#ddd" height="19" width="19" x="5.5" y="25.5" />
  <rect fill="#ddd" height="19" width="19" x="65.5" y="25.5" />
  <rect fill="#ddd" height="19" width="19" x="125.5" y="25.5" />
  <rect fill="#ddd" height="19" width="19" x="165.5" y="25.5" />
  <rect fill="#ddd" height="19" width="19" x="225.5" y="25.5" />
  <rect fill="#ddd" height="19" width="19" x="5.5" y="45.5" />
  <rect fill="#ddd" height="19" width="19" x="25.5" y="45.5" />
  <rect fill="#ddd" height="19" width="19" x="45.5" y="45.5" />
  <rect fill="#ddd" height="19" width="19" x="65.5" y="45.5" />
  <rect fill="#ddd" height="19" width="19" x="145.5" y="45.5" />
  <rect fill="#ddd" height="19" width="19" x="225.5" y="45.5" />
  <rect fill="#ddd" height="19" width="19" x="5.5" y="65.5" />
  <rect fill="#ddd" height="19" width="19" x="125.5" y="65.5" />
  <rect fill="#ddd" height="19" width="19" x="165.5" y="65.5" />
  <rect fill="#ddd" height="19" width="19" x="225.5" y="65.5" />
  <rect fill="#ddd" height="19" width="19" x="5.5" y="85.5" />
  <rect fill="#ddd" height="19" width="19" x="105.5" y="85.5" />
  <rect fill="#ddd" height="19" width="19" x="185.5" y="85.5" />
  <rect fill="#ddd" height="19" width="19" x="225.5" y="85.5" />
  <rect fill="#ddd" height="19" width="19" x="245.5" y="85.5" />
  <rect fill="#ddd" height="19" width="19" x="265.5" y="85.5" />
  <rect fill="#ddd" height="19" width="19" x="285.5" y="85.5" />
</svg>
