<svg xmlns="http://www.w3.org/2000/svg" width="310" height="110">

        <rect fill="#000" stroke="#fff" height="20" width="20" x="5" y="5" />
      

        <rect fill="#000" stroke="#fff" height="20" width="20" x="25" y="5" />
      

        <rect fill="#000" stroke="#fff" height="20" width="20" x="45" y="5" />
      

        <rect fill="#000" stroke="#fff" height="20" width="20" x="65" y="5" />
      

        <rect fill="#000" stroke="#fff" height="20" width="20" x="105" y="5" />
      

        <rect fill="#000" stroke="#fff" height="20" width="20" x="185" y="5" />
      

        <rect fill="#000" stroke="#fff" height="20" width="20" x="225" y="5" />
      

        <rect fill="#000" stroke="#fff" height="20" width="20" x="5" y="25" />
      

        <rect fill="#000" stroke="#fff" height="20" width="20" x="65" y="25" />
      

        <rect fill="#000" stroke="#fff" height="20" width="20" x="125" y="25" />
      

        <rect fill="#000" stroke="#fff" height="20" width="20" x="165" y="25" />
      

        <rect fill="#000" stroke="#fff" height="20" width="20" x="225" y="25" />
      

        <rect fill="#000" stroke="#fff" height="20" width="20" x="5" y="45" />
      

        <rect fill="#000" stroke="#fff" height="20" width="20" x="25" y="45" />
      

        <rect fill="#000" stroke="#fff" height="20" width="20" x="45" y="45" />
      

        <rect fill="#000" stroke="#fff" height="20" width="20" x="65" y="45" />
      

        <rect fill="#000" stroke="#fff" height="20" width="20" x="145" y="45" />
      

        <rect fill="#000" stroke="#fff" height="20" width="20" x="225" y="45" />
      

        <rect fill="#000" stroke="#fff" height="20" width="20" x="5" y="65" />
      

        <rect fill="#000" stroke="#fff" height="20" width="20" x="125" y="65" />
      

        <rect fill="#000" stroke="#fff" height="20" width="20" x="165" y="65" />
      

        <rect fill="#000" stroke="#fff" height="20" width="20" x="225" y="65" />
      

        <rect fill="#000" stroke="#fff" height="20" width="20" x="5" y="85" />
      

        <rect fill="#000" stroke="#fff" height="20" width="20" x="105" y="85" />
      

        <rect fill="#000" stroke="#fff" height="20" width="20" x="185" y="85" />
      

        <rect fill="#000" stroke="#fff" height="20" width="20" x="225" y="85" />
      

        <rect fill="#000" stroke="#fff" height="20" width="20" x="245" y="85" />
      

        <rect fill="#000" stroke="#fff" height="20" width="20" x="265" y="85" />
      

        <rect fill="#000" stroke="#fff" height="20" width="20" x="285" y="85" />
      
</svg>